HIERARCHY
ROOT hip
{
  OFFSET 0 0 0
  CHANNELS 6 Xposition Yposition Zposition Zrotation Yrotation Xrotation
  JOINT abdomen
  {
    OFFSET 0 20.6881 -0.73152
    CHANNELS 3 Zrotation Xrotation Yrotation
    JOINT chest
    {
      OFFSET 0 11.7043 -0.48768
      CHANNELS 3 Zrotation Xrotation Yrotation
      JOINT neck
      {
        OFFSET 0 22.1894 -2.19456
        CHANNELS 3 Zrotation Xrotation Yrotation
        JOINT head
        {
          OFFSET -0.24384 7.07133 1.2192
          CHANNELS 3 Zrotation Xrotation Yrotation
          JOINT leftEye
          {
            OFFSET 4.14528 8.04674 8.04672
            CHANNELS 3 Zrotation Xrotation Yrotation
            End Site
            {
              OFFSET 1 0 0
            }
          }
          JOINT rightEye
          {
            OFFSET -3.6576 8.04674 8.04672
            CHANNELS 3 Zrotation Xrotation Yrotation
            End Site
            {
              OFFSET 1 0 0
            }
          }
        }
      }
      JOINT rCollar
      {
        OFFSET -2.68224 19.2634 -4.8768
        CHANNELS 3 Zrotation Xrotation Yrotation
        JOINT rShldr
        {
          OFFSET -8.77824 -1.95073 1.46304
          CHANNELS 3 Zrotation Xrotation Yrotation
          JOINT rForeArm
          {
            OFFSET -28.1742 -1.7115 0.48768
            CHANNELS 3 Zrotation Xrotation Yrotation
            JOINT rHand
            {
              OFFSET -22.5879 0.773209 7.07136
              CHANNELS 3 Zrotation Xrotation Yrotation
              JOINT rThumb1
              {
                OFFSET -1.2192 -0.487915 3.41376
                CHANNELS 3 Zrotation Xrotation Yrotation
                JOINT rThumb2
                {
                  OFFSET -3.37035 -0.52449 3.41376
                  CHANNELS 3 Zrotation Xrotation Yrotation
                  End Site
                  {
                    OFFSET -1.78271 -1.18214 1.43049
                  }
                }
              }
              JOINT rIndex1
              {
                OFFSET -7.75947 0.938293 5.60832
                CHANNELS 3 Zrotation Xrotation Yrotation
                JOINT rIndex2
                {
                  OFFSET -2.54057 -0.884171 1.56538
                  CHANNELS 3 Zrotation Xrotation Yrotation
                  End Site
                  {
                    OFFSET -1.62519 -0.234802 1.16502
                  }
                }
              }
              JOINT rMid1
              {
                OFFSET -8.24714 1.18213 3.41376
                CHANNELS 3 Zrotation Xrotation Yrotation
                JOINT rMid2
                {
                  OFFSET -3.10165 -0.590103 1.0647
                  CHANNELS 3 Zrotation Xrotation Yrotation
                  End Site
                  {
                    OFFSET -2.48547 -0.328903 0.83742
                  }
                }
              }
              JOINT rRing1
              {
                OFFSET -8.82822 0.546677 1.51678
                CHANNELS 3 Zrotation Xrotation Yrotation
                JOINT rRing2
                {
                  OFFSET -2.60934 -0.819778 -0.0198488
                  CHANNELS 3 Zrotation Xrotation Yrotation
                  End Site
                  {
                    OFFSET -2.33842 -0.294052 0.168128
                  }
                }
              }
              JOINT rPinky1
              {
                OFFSET -8.27202 -0.0477905 -0.4584
                CHANNELS 3 Zrotation Xrotation Yrotation
                JOINT rPinky2
                {
                  OFFSET -1.82734 -0.647385 -0.700984
                  CHANNELS 3 Zrotation Xrotation Yrotation
                  End Site
                  {
                    OFFSET -1.69225 -0.51767 -0.607171
                  }
                }
              }
            }
          }
        }
      }
      JOINT lCollar
      {
        OFFSET 2.68224 19.2634 -4.8768
        CHANNELS 3 Zrotation Xrotation Yrotation
        JOINT lShldr
        {
          OFFSET 8.77824 -1.95073 1.46304
          CHANNELS 3 Zrotation Xrotation Yrotation
          JOINT lForeArm
          {
            OFFSET 28.1742 -1.7115 0.48768
            CHANNELS 3 Zrotation Xrotation Yrotation
            JOINT lHand
            {
              OFFSET 22.5879 0.773209 7.07136
              CHANNELS 3 Zrotation Xrotation Yrotation
              JOINT lThumb1
              {
                OFFSET 1.2192 -0.487915 3.41376
                CHANNELS 3 Zrotation Xrotation Yrotation
                JOINT lThumb2
                {
                  OFFSET 3.37035 -0.52449 3.41376
                  CHANNELS 3 Zrotation Xrotation Yrotation
                  End Site
                  {
                    OFFSET 1.78271 -1.18214 1.43049
                  }
                }
              }
              JOINT lIndex1
              {
                OFFSET 7.75947 0.938293 5.60832
                CHANNELS 3 Zrotation Xrotation Yrotation
                JOINT lIndex2
                {
                  OFFSET 2.54057 -0.884171 1.56538
                  CHANNELS 3 Zrotation Xrotation Yrotation
                  End Site
                  {
                    OFFSET 1.62519 -0.234802 1.16502
                  }
                }
              }
              JOINT lMid1
              {
                OFFSET 8.24714 1.18213 3.41376
                CHANNELS 3 Zrotation Xrotation Yrotation
                JOINT lMid2
                {
                  OFFSET 3.10165 -0.590103 1.0647
                  CHANNELS 3 Zrotation Xrotation Yrotation
                  End Site
                  {
                    OFFSET 2.48547 -0.328903 0.83742
                  }
                }
              }
              JOINT lRing1
              {
                OFFSET 8.82822 0.546677 1.51678
                CHANNELS 3 Zrotation Xrotation Yrotation
                JOINT lRing2
                {
                  OFFSET 2.60934 -0.819778 -0.0198488
                  CHANNELS 3 Zrotation Xrotation Yrotation
                  End Site
                  {
                    OFFSET 2.33842 -0.294052 0.168128
                  }
                }
              }
              JOINT lPinky1
              {
                OFFSET 8.27202 -0.0477905 -0.4584
                CHANNELS 3 Zrotation Xrotation Yrotation
                JOINT lPinky2
                {
                  OFFSET 1.82734 -0.647385 -0.700984
                  CHANNELS 3 Zrotation Xrotation Yrotation
                  End Site
                  {
                    OFFSET 1.69225 -0.51767 -0.607171
                  }
                }
              }
            }
          }
        }
      }
    }
  }
  JOINT rButtock
  {
    OFFSET -8.77824 4.35084 1.2192
    CHANNELS 3 Zrotation Xrotation Yrotation
    JOINT rThigh
    {
      OFFSET 0 -1.70687 -2.19456
      CHANNELS 3 Zrotation Xrotation Yrotation
      JOINT rShin
      {
        OFFSET 0 -36.8199 0.73152
        CHANNELS 3 Zrotation Xrotation Yrotation
        JOINT rFoot
        {
          OFFSET 0.73152 -45.1104 -5.12064
          CHANNELS 3 Zrotation Xrotation Yrotation
          End Site
          {
            OFFSET -1.1221 -3.69964 12.103
          }
        }
      }
    }
  }
  JOINT lButtock
  {
    OFFSET 8.77824 4.35084 1.2192
    CHANNELS 3 Zrotation Xrotation Yrotation
    JOINT lThigh
    {
      OFFSET 0 -1.70687 -2.19456
      CHANNELS 3 Zrotation Xrotation Yrotation
      JOINT lShin
      {
        OFFSET 0 -36.8199 0.73152
        CHANNELS 3 Zrotation Xrotation Yrotation
        JOINT lFoot
        {
          OFFSET -0.73152 -45.1104 -5.12064
          CHANNELS 3 Zrotation Xrotation Yrotation
          End Site
          {
            OFFSET 1.1221 -3.69964 12.103
          }
        }
      }
    }
  }
}
MOTION
Frames:	8
Frame Time:	0.03333
-59.6557 55.2731 57.3341 -179.580299 -5.673098 -175.608067 -2.412523 11.65204 -44.350403 10.313628 -5.164873 41.162283 6.332384 26.508676 78.939315 -40.678152 6.28663 -124.770229 0.001666 -0.0 -0.000376 0.001666 -0.0 -0.000376 -155.417525 -2.951695 161.717699 151.033375 33.110185 -163.286519 0.286223 -12.471343 82.157438 -8.814386 45.614851 4.664501 176.50629 -20.695299 88.629425 -53.963441 -5.984517 6.939961 10.283159 -18.182273 -4.584916 -112.296942 38.311408 89.765793 0.540559 -1.590009 -0.295253 -27.885405 51.221058 23.075266 -145.100131 -1.523455 -178.650536 -23.413532 -71.737297 -44.775834 5.663871 16.872215 5.086242 -21.052999 -38.389273 -21.547393 29.635527 58.07136 -32.036397 -58.883739 8.955265 -51.637016 89.942964 -32.905621 -68.543159 168.218463 -45.944384 -162.335857 103.199236 36.330776 -60.111439 3.611877 -20.150732 -26.622874 50.386784 40.825712 -40.025177 9.76816 22.289537 -3.7268 36.035542 51.722944 -29.833087 -92.01196 -78.47698 -62.84496 0.007834 -0.87225 0.273061 155.377323 -1.620002 -172.047305 25.540582 -38.086512 24.599351 -2.312389 -2.407209 1.052826 179.987277 75.749556 0.008705 145.785854 7.964536 -180.0 1.536916 -76.711637 115.029569 -18.600683 -62.228627 78.160069 179.987277 75.749556 0.008705 -138.063207 38.923278 124.966042 75.114273 -43.733467 157.978014 -105.5458 71.102539 -157.57394
-59.6988 55.2775 57.502900000000004 -179.574152 -5.613391 -175.649852 -3.131247 7.817753 -158.091181 -1.594416 8.094865 154.540533 -11.043313 22.062516 -24.762065 19.497274 -29.149838 -16.183584 -0.000552 -0.0 0.001466 0.005094 0.0 0.000491 -153.592044 -75.693547 -178.262061 119.420027 63.056536 -90.851212 -26.941749 -36.082792 63.61868 -1.428134 24.841818 3.261402 81.971306 -50.091576 32.72337 -90.732931 38.837448 53.784527 60.458935 -70.524865 15.707298 12.090097 7.860757 -4.005745 -160.673031 -6.668248 143.243775 -6.160726 23.457208 5.522781 -145.110568 -0.627709 -178.93232 -152.31809 -25.061172 -175.333167 -13.273456 -25.411536 -12.631234 37.604295 80.868692 -0.60411 8.482332 32.161192 -9.928559 -71.106671 12.545115 -23.568661 -167.169437 -2.167942 -34.665314 123.379859 44.427723 -107.537393 5.334493 5.170691 -1.054524 37.055045 24.387062 -35.433735 162.638051 -37.465711 -122.647261 17.680091 42.696552 -9.123466 -68.984667 -80.153752 -40.578914 7.586738 26.125324 -6.221557 -0.001516 0.063783 -0.019524 148.227891 -76.781004 171.093082 17.762778 -30.899959 16.992472 42.684552 -50.855965 43.547405 0.000176 0.00119 -0.000227 -58.381257 -48.288886 42.192494 79.764387 -8.430434 165.787271 158.969521 73.394744 -75.051145 -179.945093 75.751199 -0.045177 -136.363066 40.549923 -31.093415 -26.305576 74.354066 100.032604 58.921294 -61.812291 -21.339081
-59.770599999999995 55.278400000000005 57.788 -179.327286 -5.637324 -175.74493 -3.627011 12.565365 -0.0 5.409312 -11.467544 -2.842598 4.457089 23.764541 60.231411 -37.586346 -6.463248 -110.007894 0.003344 0.0 0.006675 0.001966 -0.0 -0.001307 4.260616 -46.008904 -8.909875 -121.745343 -25.637698 -179.9505 -162.908636 24.341941 -105.12 -5.536181 37.425227 3.678992 -171.705663 -9.388507 89.949465 -128.14656 12.440547 62.305871 4.608466 -7.83101 -2.380037 -12.343227 29.026468 10.401062 -141.1083 35.601271 129.174804 11.650016 -24.880716 -1.21135 -71.53904 -72.139438 -88.496901 -149.850246 -27.306115 -179.907226 34.825337 84.364282 3.79597 -14.848478 -30.052884 -15.431194 155.460574 -3.22777 -161.777484 71.738705 35.33193 -21.613049 -90.021378 -35.6811 100.676313 48.526391 37.136066 -30.107852 171.601883 -9.286793 -89.950521 -179.482646 -16.720738 -94.388943 50.386189 40.827114 -40.024004 167.507265 -15.677282 -112.339137 -23.904692 -61.333669 -1.400362 129.322122 52.05674 -118.343731 145.119583 0.268395 179.211147 -12.072497 36.619615 4.852556 -26.974692 80.122617 -10.135981 138.601509 -13.524337 134.645444 -179.984159 75.750971 -0.013034 146.541368 10.360829 6.043039 18.111443 72.616024 -79.195563 2.243561 -6.14184 66.188538 179.995123 75.749836 0.003337 -135.95232 39.851756 -56.476831 -70.911181 56.145247 172.57088 -100.011474 55.256312 -5.3573
-59.9192 55.275 58.272 -178.959821 -5.855479 -175.840412 -3.012343 12.806803 0.545818 5.164706 -11.598051 -3.651146 -5.612308 20.196622 4.218111 -4.862766 -32.605456 -52.087336 -0.001238 -0.0 0.001573 0.004408 0.0 0.000602 -157.67878 -66.559398 175.832261 135.846533 59.080302 -110.674415 170.979761 41.739306 70.875275 156.023215 -33.300147 140.981553 -121.365391 30.329681 71.957357 -26.573002 -17.185929 28.726711 -166.820806 -43.973656 122.063313 13.19668 1.525469 -9.243674 -125.64359 49.839254 115.273018 -88.543349 63.807863 80.447607 -0.001395 0.063904 0.019243 -23.391179 72.954483 36.419533 -156.862003 55.540457 -150.334665 -26.104255 -40.32464 -26.591391 -2.526498 -18.844019 3.786857 27.06834 -61.326772 98.336767 25.969922 -11.527621 151.057701 157.882624 3.210607 -144.922194 -71.831129 -48.263139 -25.792472 136.010878 15.278759 -104.196756 4.707882 7.223652 -2.854902 -15.494496 -6.813778 1.227002 0.057191 0.16788 -0.032855 163.611253 -5.806799 -143.45875 73.163685 -72.141218 90.198721 149.872471 -26.764385 179.948376 -0.100067 0.257765 -0.093088 -14.564514 41.801944 -8.477154 2e-05 0.000703 -2.5e-05 -54.385387 -50.465673 -135.385374 -81.845035 9.628911 -52.310106 -92.547482 58.147499 -177.344605 179.999655 75.750655 0.000356 -136.793536 39.498088 -30.146991 -23.153755 74.106917 82.155283 -146.18168 5.082267 17.992141
-60.2383 55.2709 59.0297 -178.423728 -6.253869 -175.896457 -0.862449 8.666919 -150.951451 0.249931 8.176573 146.524104 -0.984258 20.53727 27.553706 -22.980231 -26.153778 -79.74847 -0.002187 -0.0 0.00154 -0.002794 0.0 -0.002381 -83.770228 68.265041 86.903063 115.935714 -44.081979 122.93109 -144.550353 27.032418 47.284806 116.547134 -61.633914 105.151318 -78.029954 38.689917 42.413047 160.154521 -51.562746 69.810654 -27.420818 30.639774 20.098122 -178.799515 -31.983896 108.268055 78.537875 -80.918758 49.688492 2.896225 0.367959 0.220365 0.004225 1.772181 0.557724 -156.624055 -25.086837 174.791059 -146.227004 15.470182 -142.747715 -128.11743 -27.865179 -125.441252 -4.238133 -44.742724 8.649349 135.287983 14.565805 134.858291 -51.707738 84.216798 -170.424634 136.247958 36.456818 -120.969952 -71.831007 -48.26339 -25.792334 133.939647 17.803941 -101.94785 46.209956 39.652071 -36.318458 67.693578 50.199064 -47.951278 161.153615 -8.160422 -143.465886 163.368203 -4.999105 -142.988053 -0.004402 0.605489 -0.191092 155.456178 -1.03639 -171.9711 135.068993 -13.384339 132.470204 137.198451 -12.561893 134.083378 -0.000988 -0.001208 0.0 -53.171662 -49.115757 -45.973019 55.445471 69.479883 77.075608 -103.828332 -25.865521 168.504551 -0.002 0.001646 -0.001 35.65284 -24.203778 -0.0 -71.844718 54.155952 -23.726752 82.307197 -40.056915 154.737223
-60.8653 55.26950000000001 60.062599999999996 -177.804664 -6.464009 -175.864179 -0.390562 8.789382 -166.889082 -2.446729 7.88159 162.31084 -11.788178 22.86 -30.673178 24.982489 -28.275264 -8.990027 -0.000156 0.0 -6.3e-05 -0.000156 0.0 -6.3e-05 -143.62001 38.233324 148.080531 -13.951381 -65.320213 17.591928 66.480345 20.022869 -156.958796 173.387469 11.526125 151.523729 179.144002 -18.272937 89.129767 -136.147361 14.626311 70.384455 -151.353641 -17.15822 121.133237 82.525317 -69.228778 30.767753 78.535686 -80.919957 49.687111 -170.56544 -26.234826 144.086167 -74.842659 72.96027 92.828275 -88.350496 83.135474 97.340624 7.22555 22.273621 6.416134 -10.447089 -25.906522 -11.37395 -4.226855 -44.173135 8.531155 -35.215058 -14.487497 49.170975 -178.765031 77.829498 69.357212 15.723998 -43.988649 11.464031 0.491601 0.4847 -0.077048 30.147161 23.542753 -26.995588 14.22862 19.203622 -9.55905 -86.36574 -60.561857 -37.044829 154.523394 10.68949 -139.686031 -92.065995 -78.20073 -63.014453 -4.8e-05 0.063804 -0.020293 156.533873 -27.666096 -175.090133 -13.633152 46.898519 -11.15957 25.196493 -41.050096 25.215805 -179.991871 75.749403 -0.005562 147.806082 10.146942 100.318686 71.597023 -20.666229 -17.921341 0.662949 -40.705069 -84.587767 0.000978 0.000239 -0.0 35.707016 -28.582127 -180.0 72.904661 -69.578107 -19.527756 76.73095 -76.938014 -10.686573
-61.9614 55.2922 61.381099999999996 -177.270438 -6.103214 -175.856943 0.068689 9.190855 178.109904 -4.830848 6.854898 177.417031 -15.183201 32.674133 -90.517966 47.627641 8.098242 42.022554 0.003872 0.0 0.000479 -0.001771 -0.0 0.001455 -59.830348 -86.721418 -81.63156 -126.112353 -25.203568 -154.45978 -178.176009 -10.957112 -102.390477 -10.921725 50.158525 5.609298 178.339856 -19.018842 88.989194 2.838034 -61.256979 3.708488 -19.169462 24.1147 13.38141 8.308721 0.503499 -0.936088 -152.124855 16.402333 138.011439 -163.239716 -4.8906 142.994142 -0.02011 -1.725966 -0.543036 -156.389311 -27.670197 175.094917 -150.034321 28.966194 -145.934895 8.564109 18.584653 2.704911 9.651883 34.836125 -11.199431 -67.199504 18.232169 -27.921153 -176.309628 -1.361731 -37.718333 135.233846 37.519047 -119.669794 -113.262282 -50.398 -54.829463 19.17401 -44.849599 27.59288 -1.505945 -2.484835 0.828492 166.125133 -20.548085 -109.676913 36.036341 51.722647 -29.833415 169.969539 -25.747291 -144.208328 145.097816 -1.521326 178.650625 -10.725339 4.574538 8.433269 143.938693 8.264979 140.719987 -2.085046 -0.73692 2.213863 -0.0 0.000756 0.000628 -49.464107 -51.857927 -97.974057 -74.148814 39.823792 -58.852747 -104.617222 61.931826 -171.416568 -179.991343 75.750024 -0.007639 -142.805139 35.487912 0.0 52.967366 70.326167 -87.173542 125.57455 32.54317 -32.393106
-63.626400000000004 55.3634 63.025 -176.894275 -5.124033 -176.015674 1.362417 14.649472 -0.289691 4.383686 -11.671882 -3.865182 -11.639107 37.524366 -124.741896 45.985642 31.02329 66.693641 -0.00099 -0.0 0.001293 -0.001521 0.0 -0.002691 -13.74402 42.431425 15.569656 -178.071443 -16.562239 129.085407 -140.342331 -60.702469 100.515572 133.714515 -55.43898 121.072829 -95.360383 37.750769 54.683119 -157.564021 -31.179542 79.218131 -145.336541 -6.264647 118.67858 -113.03149 49.257195 90.505902 -0.286656 0.832682 0.160937 -156.823822 13.481041 140.407118 -145.112532 -0.668714 -178.918651 -152.355775 -24.842084 -175.377761 -4.662174 -10.866028 -4.364737 -127.117028 -30.968984 -125.736614 142.97436 39.431656 -147.389986 1.955899 -29.979998 -66.095319 119.297567 4.060517 5.000801 167.535027 -36.170615 -158.640082 -6.464044 -6.452516 0.635117 0.590901 -1.486471 3.99793 -20.933587 -37.332302 5.933676 20.004837 38.093859 -16.598314 174.944811 -48.565521 -144.39075 -80.886967 -77.688887 -52.573743 145.121942 2.056706 179.772627 55.215834 87.581576 -68.264996 -31.996089 83.321543 -6.250401 -41.290977 80.67832 5.826603 -179.95288 75.748616 -0.036317 152.272675 11.996555 5.653125 6.641736 72.363638 -114.06071 -0.671609 30.909891 101.487684 0.000125 -0.000122 -0.0 33.450661 -31.299435 -0.0 -73.593661 75.328974 145.113899 -104.569864 31.177937 2.350662
